<?xml version="1.0" encoding="UTF-8" standalone="no"?>
<svg
   width="628"
   height="628"
   version="1.1"
   id="svg14"
   sodipodi:docname="duckfn-ins.svg"
   xml:space="preserve"
   inkscape:version="1.4.4 (dcaf3e7, 2026-05-05)"
   xmlns:inkscape="http://www.inkscape.org/namespaces/inkscape"
   xmlns:sodipodi="http://sodipodi.sourceforge.net/DTD/sodipodi-0.dtd"
   xmlns="http://www.w3.org/2000/svg"
   xmlns:svg="http://www.w3.org/2000/svg"><defs
     id="defs14" /><sodipodi:namedview
     id="namedview14"
     pagecolor="#ffffff"
     bordercolor="#000000"
     borderopacity="0.25"
     inkscape:showpageshadow="2"
     inkscape:pageopacity="0.0"
     inkscape:pagecheckerboard="0"
     inkscape:deskcolor="#d1d1d1"
     inkscape:zoom="0.9097807"
     inkscape:cx="7.1445789"
     inkscape:cy="289.08065"
     inkscape:window-width="1920"
     inkscape:window-height="1010"
     inkscape:window-x="1073"
     inkscape:window-y="654"
     inkscape:window-maximized="1"
     inkscape:current-layer="svg14" /><path
     fill="#fbfcfa"
     d="M0 0h628v628H0z"
     id="path1"
     style="fill:#fbfcfa;fill-opacity:0" /><path
     id="path2"
     d="M 342.7793 90.658203 C 315.83835 91.624035 290.62977 109.01793 278.34375 132.78906 C 263.88063 158.06039 264.82635 192.09717 284.90039 214.21289 C 296.79212 225.57598 320.31013 240.57488 300.6875 257.375 C 291.64597 263.73969 284.78843 272.83838 276.67188 280.35156 C 259.20179 295.90697 244.04147 316.17892 220.73242 323.15625 C 207.66286 329.52629 188.67539 323.40621 178 323.24805 C 188.58303 366.82086 225.33858 403.01039 268.79883 414.01758 C 299.95576 421.47631 332.23201 417.25629 363.9375 418.32227 C 411.02289 420.0816 455.36066 384.60058 465.71484 338.92578 C 469.32482 321.02408 470.03584 301.88167 465.08789 284.18164 C 457.67379 255.01247 435.0167 233.32851 411.11133 216.71289 C 400.94061 210.68126 387.54662 197.87536 396.5293 185.48242 C 408.12288 172.3123 420.91502 158.28334 423 140 C 411.52083 110.10614 380.19849 89.449406 348.1875 90.6875 C 346.37935 90.60289 344.57536 90.593814 342.7793 90.658203 z M 377.34375 139.12305 A 14.378713 13.990099 0 0 1 391.72266 153.11328 A 14.378713 13.990099 0 0 1 377.34375 167.10352 A 14.378713 13.990099 0 0 1 362.96484 153.11328 A 14.378713 13.990099 0 0 1 377.34375 139.12305 z M 337.34375 264.61133 L 340.94141 264.61133 L 340.94141 278.67969 C 336.09828 278.67969 332.92922 278.91388 331.43555 279.38281 C 329.94187 279.81267 328.83357 280.53474 328.10938 281.55078 C 327.43043 282.56681 327.0918 284.44422 327.0918 287.17969 C 327.0918 292.10354 326.8205 297.59328 326.27734 303.65039 C 325.91524 307.59729 324.67032 311.13351 322.54297 314.25977 C 320.95877 316.56538 318.21878 318.81163 314.32617 321 C 317.63036 322.64128 320.25683 324.73335 322.20312 327.27344 C 324.14943 329.77444 325.43859 332.95939 326.07227 336.82812 C 326.34385 338.50848 326.66134 343.97871 327.02344 353.24023 C 327.15923 356.64004 327.40743 358.74967 327.76953 359.57031 C 328.35795 360.78174 329.4451 361.70092 331.0293 362.32617 C 332.65876 362.95142 335.9625 363.26367 340.94141 363.26367 L 340.94141 377.27344 L 337.34375 377.27344 C 330.78064 377.27344 325.91449 376.80506 322.74609 375.86719 C 319.5777 374.96839 316.99742 373.61986 315.00586 371.82227 C 313.0143 370.06375 311.56541 367.81751 310.66016 365.08203 C 309.80016 362.38564 309.37109 357.71556 309.37109 351.07227 C 309.37109 343.64742 308.89583 338.64557 307.94531 336.06641 C 307.04006 333.44817 305.59117 331.4927 303.59961 330.20312 C 301.65331 328.91355 298.62087 328.17196 294.50195 327.97656 L 294.50195 313.9082 C 298.53034 313.75189 301.49545 313.06885 303.39648 311.85742 C 305.34279 310.646 306.81281 308.74908 307.80859 306.16992 C 308.84963 303.59077 309.37109 299.23489 309.37109 293.09961 C 309.37109 285.36213 309.77902 280.08511 310.59375 277.27148 C 311.40848 274.41878 312.69764 272.15302 314.46289 270.47266 C 316.2734 268.75322 318.89792 267.34614 322.33789 266.25195 C 325.82313 265.15777 330.8259 264.61133 337.34375 264.61133 z M 379.70898 264.61133 L 383.30664 264.61133 C 389.86975 264.61133 394.71476 265.0797 397.83789 266.01758 C 401.00629 266.95545 403.58461 268.3235 405.57617 270.12109 C 407.613 271.87961 409.06188 274.12586 409.92188 276.86133 C 410.82713 279.55772 411.2793 284.22781 411.2793 290.87109 C 411.2793 298.29595 411.73341 303.29779 412.63867 305.87695 C 413.5892 308.45611 415.03612 310.39206 416.98242 311.68164 C 418.92873 312.97122 421.98426 313.71282 426.14844 313.9082 L 426.14844 327.97656 C 422.12004 328.17196 419.1338 328.87451 417.1875 330.08594 C 415.28646 331.25828 413.81449 333.15324 412.77344 335.77148 C 411.7324 338.35064 411.21289 342.70848 411.21289 348.84375 C 411.21289 356.58123 410.80497 361.85629 409.99023 364.66992 C 409.22077 367.48355 407.92965 369.73175 406.11914 371.41211 C 404.35389 373.13155 401.72938 374.53862 398.24414 375.63281 C 394.80416 376.727 389.82448 377.27344 383.30664 377.27344 L 379.70898 377.27344 L 379.70898 363.26367 C 384.5521 363.26367 387.69807 363.02948 389.14648 362.56055 C 390.64016 362.13069 391.74846 361.40861 392.47266 360.39258 C 393.19686 359.37655 393.56055 357.49915 393.56055 354.76367 C 393.56055 349.80074 393.83184 344.29149 394.375 338.23438 C 394.69183 334.28748 395.91366 330.77077 398.04102 327.68359 C 399.67048 325.3389 402.43162 323.09071 406.32422 320.94141 C 403.02004 319.30012 400.39357 317.22952 398.44727 314.72852 C 396.50097 312.18844 395.21181 308.96446 394.57812 305.05664 C 394.30655 303.41536 393.98905 297.96465 393.62695 288.70312 C 393.49116 285.26425 393.21987 283.15461 392.8125 282.37305 C 392.22408 281.12255 391.11579 280.20336 389.48633 279.61719 C 387.90213 278.99193 384.64263 278.67969 379.70898 278.67969 L 379.70898 264.61133 z "
     style="fill:#14459b;fill-opacity:1" /><path
     fill="#14459b"
     d="m 142.222,209.86 c 31.26677,-0.0197 62.53837,-0.35416 93.80208,-0.0724 14.60865,0.15082 29.69805,4.69992 40.01824,15.45513 5.33306,5.37473 11.2375,10.24299 16.26743,15.87582 1.93936,5.61263 -5.01546,9.24466 -8.18623,13.16805 -15.67693,15.4349 -30.7125,31.54655 -46.97044,46.36845 -11.90466,10.62678 -28.42333,16.16401 -44.2915,13.35205 -11.18771,-1.78624 -19.98599,-9.90957 -27.77591,-17.61997 -17.91283,-19.31338 -26.16272,-44.95546 -34.0822,-69.5223 -2.22862,-6.58186 0.11212,-15.06992 7.66397,-16.64337 1.16424,-0.26805 2.36244,-0.35622 3.55456,-0.36144 z"
     id="path3" /><path
     fill="#16459b"
     d="m 149,436 c 6.99539,-0.1364 14.00824,-0.2719 21,0 2.18177,1.95561 0.59544,5.5315 1.1288,8.16206 0.0133,27.23197 -0.004,54.46399 0.007,81.69594 L 171,532 c -1.90533,2.60408 -5.74918,0.69031 -8.553,1.088 -4.48224,-0.0426 -8.96476,-0.0441 -13.447,-0.088 -0.66667,-2 -1.33333,-4 -2,-6 -7.53752,6.18014 -17.64595,8.1289 -27.17874,7.22023 -6.53091,-0.20496 -12.20761,-4.13803 -17.1984,-8.01039 -4.615748,-4.11728 -8.102779,-9.4574 -10.525607,-15.11383 -2.489145,-7.59655 -1.987326,-15.89289 -0.36971,-23.60793 3.397243,-10.1426 10.118627,-19.45359 19.841567,-24.32605 8.13271,-3.78654 17.75044,-4.63397 26.43089,-2.30303 2.79866,0.52825 7.13327,4.10374 9.01515,3.63173 C 147.37959,455.32935 147.40774,446.14925 148,437 c 0.33333,-0.33333 0.66667,-0.66667 1,-1 z"
     id="path4" /><path
     fill="#17469b"
     d="m 342,436 c 7.19909,-0.17678 14.41571,-0.22741 21.61357,-0.0236 2.2035,0.81413 1.37331,3.76684 1.60256,5.67179 0.2627,13.1172 0.52884,26.23439 0.78387,39.35176 4.89361,-6.00622 9.2893,-12.56094 15.20502,-17.62571 6.94738,-4.71712 15.81453,-3.76934 23.76712,-3.32701 2.75724,0.77285 10.52796,-0.63762 6.58019,3.7975 -4.19866,5.89107 -10.06879,10.34443 -14.93532,15.64997 C 393.08322,483.00176 389.55108,486.51044 386,490 c 3.37549,7.08789 8.91706,12.79718 13.50834,19.08167 5.09422,6.6594 10.72278,12.90471 15.70699,19.64188 2.17265,3.27311 0.18442,5.20807 -3.24132,4.60616 -6.69948,0.32882 -13.48021,1.60134 -20.16601,0.57072 -4.47976,-0.75891 -7.89331,-3.99401 -10.01501,-7.87222 C 378.33959,519.16426 373.20446,513.38715 369,507 c -1.30488,0.61336 -3.63271,0.46209 -3.05161,2.4852 -0.33052,7.18152 -0.40848,14.38073 -0.87711,21.55294 -0.77302,3.46407 -5.23921,1.66215 -7.92774,2.09752 C 352.09646,533.05621 347.04079,533.28636 342,533 c -2.17298,-1.95943 -0.60104,-5.52907 -1.1288,-8.16206 0.0296,-28.51145 -0.0871,-57.02466 0.0571,-85.53501 -0.0141,-1.32736 -0.16154,-2.527 1.07168,-3.30293 z"
     id="path5" /><path
     fill="#17377f"
     d="m 522.375,461.625 c 7.10859,3.02636 13.71897,8.73542 15.20486,16.64912 1.75721,8.50037 0.37081,17.26064 0.7609,25.85338 -0.17872,9.6071 0.0942,19.23086 -0.33778,28.82976 -1.76469,2.2606 -5.32363,0.74765 -7.8329,1.23616 -4.10788,-0.13236 -8.24912,0.27878 -12.33775,-0.12215 -3.43674,-0.76476 -3.19062,-4.5043 -3.07535,-7.27017 -0.0854,-12.12051 0.0306,-24.24752 -0.18517,-36.36433 -0.15669,-4.00646 -2.27407,-8.41896 -6.47827,-9.41803 -3.77419,-0.94963 -8.06838,-1.17628 -11.67754,0.49114 -4.00151,2.70016 -5.75186,7.88903 -5.62089,12.56887 -0.2672,12.72421 -0.33261,25.45922 -0.73184,38.17666 -0.24735,2.82372 -4.097,1.59778 -6.02877,1.93122 -4.72792,-0.15515 -9.49309,0.29606 -14.20217,-0.11536 -4.10737,-1.02267 -2.88334,-5.74571 -3.07593,-8.9155 0.0564,-20.47514 -0.0126,-40.95375 0.15977,-61.42669 -0.57229,-2.80851 3.23765,-4.5832 5.77483,-2.82708 5.43635,0.028 10.8727,0.0591 16.309,0.098 0.66667,2.33333 1.33333,4.66667 2,7 3.88323,-2.99697 7.62029,-6.48913 12.56443,-7.60457 6.1895,-1.70192 12.84312,-0.95998 18.81057,1.22957 z"
     id="path6"
     style="fill:#fcb002;fill-opacity:1" /><path
     fill="#16459c"
     d="m 180,461 c 6.97496,-0.19879 13.96408,-0.17912 20.93978,-0.0646 2.48247,-0.27923 2.21997,2.80037 2.18833,4.481 0.34203,12.09903 0.21859,24.21405 0.73394,36.30469 0.13478,4.55297 2.4188,9.39165 7.35051,10.1504 4.7444,1.02114 10.4098,0.81462 14.23553,-2.46351 3.67913,-3.2113 3.93725,-8.34792 3.89211,-12.88001 C 229.56457,485.0189 229.59129,473.50409 230,462 c 1.53704,-2.02463 4.5162,-0.76319 6.72199,-1.13414 5.42519,0.0762 10.85916,-0.15329 16.27801,0.13414 1.85736,1.80048 0.93943,4.63384 1.22874,6.9594 -0.0576,10.81212 0.60357,21.639 -0.004,32.4409 -0.60669,8.64624 -3.44344,17.44162 -9.28107,23.97409 -6.72012,6.24312 -15.77745,10.04305 -24.97775,10.11026 -9.79465,0.60977 -20.36725,-0.50324 -28.50373,-6.44809 -6.46636,-4.9922 -11.16511,-12.4028 -12.62491,-20.44251 -0.61648,-9.74681 -0.0264,-19.5262 -0.12065,-29.28705 0.33864,-5.42226 -0.17154,-10.88766 0.283,-16.307 0.33333,-0.33333 0.66667,-0.66667 1,-1 z"
     id="path7" /><path
     fill="#17469b"
     d="m 321,462 c 4.49453,2.90917 10.22949,5.12192 12.30212,10.50211 0.64596,1.14268 -1.16907,2.98897 -2.7245,3.68345 -2.81678,3.49343 -6.88538,5.61345 -10.19026,8.59243 -3.30322,4.26329 -7.39948,0.35029 -10.11537,-2.39284 -4.40725,-3.32483 -10.49539,-3.2431 -15.6355,-1.94205 -9.91356,3.81087 -14.24651,17.71875 -7.95442,26.38825 1.78628,2.70546 3.93359,5.50265 7.4009,5.87453 7.68582,2.10194 17.06903,-0.12252 21.57176,-7.06312 2.57205,-0.86315 6.40719,2.43914 9.22679,3.71056 2.96249,2.20996 6.97721,3.61708 8.79938,6.94002 1.2213,4.57099 -3.62722,7.0098 -6.42265,9.60296 -9.07971,7.37469 -21.02818,11.82839 -32.79153,9.93745 -11.65669,-1.3567 -23.12532,-7.54884 -29.01622,-17.97118 -5.6982,-9.0202 -7.5243,-20.43461 -4.28353,-30.66778 4.71845,-16.36105 20.4279,-29.06777 37.56147,-29.5394 C 306.36132,457.25354 314.05311,458.84578 321,462 Z"
     id="path8"
     sodipodi:nodetypes="ccccccccccccccccc" /><path
     fill="#14337b"
     d="m 462,437 c 0,5 0,10 0,15 -4.329,-0.004 -8.71162,-0.7862 -12.99537,-0.001 -3.13826,1.25559 -6.05226,4.05607 -5.7554,7.6827 -0.066,2.10715 -0.24266,4.20961 -0.24923,6.31867 4.99992,-0.0307 10.00124,-0.16363 15,0 2.13419,1.72543 0.57967,5.02417 1.07566,7.41967 -0.0192,3.52681 -0.0511,7.05355 -0.0757,10.58033 -5.66667,0.33333 -11.33333,0.66667 -17,1 0,16 0,32 0,48 -7,0 -14,0 -21,0 -2.4797,-1.76574 -0.75081,-5.35318 -1.114,-7.98608 0.0525,-13.00458 0.0616,-26.00933 0.114,-39.01392 -2.33334,0.0766 -4.66663,0.057 -7,0 -2.33559,-2.13655 -0.56023,-6.038 -1.12682,-8.88336 0.0671,-2.06831 -0.17757,-4.31537 0.28298,-6.2728 1.59959,-2.68412 7.60839,1.12899 7.79176,-1.94681 -0.45749,-8.05603 -0.46359,-16.83069 4.52759,-23.64149 3.9048,-6.50582 11.37942,-10.42214 18.90251,-10.52593 6.28489,-0.4699 12.59193,0.53313 18.62198,2.27039 z"
     id="path9"
     style="fill:#fcb202;fill-opacity:1" /><path
     fill="#143070"
     d="m 429,148 c 5.21384,0.21914 10.07676,2.41648 14.25829,5.42969 11.38554,7.22768 24.58401,10.56953 37.42001,14.17819 4.01169,0.86642 4.8667,5.47079 3.93342,8.90085 -0.44665,3.7364 -3.64067,6.24231 -6.26554,8.60992 -14.65714,10.83282 -32.33769,17.85951 -50.58486,19.08013 -7.66137,0.33614 -15.84181,0.91315 -22.77262,-3.02771 -3.25935,-1.43716 -5.05097,-5.62064 -4.24502,-9.0287 1.17969,-5.50247 6.84391,-7.94139 10.10096,-12.04004 C 419.67133,171.23015 423.63518,158.96168 429,148 Z"
     id="path10"
     style="fill:#fcb103;fill-opacity:1" /><path
     fill="#f7f9f6"
     d="M137 480c4.414 2.022 7.172 4.862 10 8.75 1.616 5.251 1.852 10.169.379 15.496-1.955 4.595-4.661 7.497-9.031 9.906-4.448 1.606-8.715 1.614-13.348.848-4.451-2.185-7.189-4.94-10-9-1.699-5.096-2.012-10.993-.281-16.137 5.038-9.365 12.372-11.165 22.281-9.863"
     id="path11" /><path
     fill="#304d90"
     d="m107 466 2 1-11 11c0-3 0-3 2.25-6 2.048-2.345 4.147-4.265 6.75-6"
     id="path13" /><path
     fill="#304b86"
     d="m178 322 3 1-2 3z"
     id="path14" /></svg>
